<svg width="235" height="29" viewBox="0 0 235 29" fill="none" xmlns="http://www.w3.org/2000/svg">
<path d="M11.186 1.84C12.8193 1.84 14.28 2.092 15.568 2.596C16.8653 3.09067 17.9667 3.8 18.872 4.724C19.7773 5.648 20.468 6.754 20.944 8.042C21.4293 9.32067 21.672 10.7487 21.672 12.326C21.672 13.754 21.434 15.0887 20.958 16.33C20.482 17.5713 19.796 18.6587 18.9 19.592C18.004 20.5253 16.9167 21.2533 15.638 21.776C14.3687 22.2987 12.936 22.56 11.34 22.56C9.716 22.56 8.25533 22.3127 6.958 21.818C5.67 21.314 4.56867 20.6 3.654 19.676C2.74867 18.752 2.05333 17.6507 1.568 16.372C1.092 15.084 0.854 13.6513 0.854 12.074C0.854 10.646 1.092 9.31133 1.568 8.07C2.044 6.82867 2.73 5.74133 3.626 4.808C4.522 3.87467 5.60467 3.14667 6.874 2.624C8.15267 2.10133 9.59 1.84 11.186 1.84ZM14.994 16.162C14.994 14.9113 14.8913 13.6887 14.686 12.494C14.49 11.29 14.2193 10.1653 13.874 9.12C13.5287 8.07467 13.1367 7.15533 12.698 6.362C12.2593 5.56867 11.7973 4.948 11.312 4.5C10.836 4.04267 10.36 3.814 9.884 3.814C9.38 3.814 8.95533 3.982 8.61 4.318C8.274 4.654 8.01733 5.14867 7.84 5.802C7.672 6.45533 7.588 7.26733 7.588 8.238C7.588 9.48867 7.686 10.716 7.882 11.92C8.08733 13.1147 8.36267 14.2347 8.708 15.28C9.05333 16.3253 9.44533 17.2447 9.884 18.038C10.3227 18.8313 10.78 19.4567 11.256 19.914C11.7413 20.362 12.222 20.586 12.698 20.586C13.2113 20.586 13.636 20.418 13.972 20.082C14.308 19.746 14.56 19.2513 14.728 18.598C14.9053 17.9447 14.994 17.1327 14.994 16.162ZM30.0213 14.356C30.0213 12.928 30.2079 11.752 30.5813 10.828C30.9546 9.89467 31.4493 9.204 32.0653 8.756C32.6906 8.308 33.3719 8.084 34.1093 8.084C35.0986 8.084 35.8546 8.38267 36.3773 8.98C36.9093 9.568 37.1753 10.4593 37.1753 11.654C37.1753 12.8767 36.9279 13.7773 36.4333 14.356C35.9479 14.9347 35.3133 15.224 34.5293 15.224C33.7359 15.224 33.1386 15.0233 32.7373 14.622C32.3453 14.2113 32.1493 13.6467 32.1493 12.928V12.34C32.1399 12.0973 32.0839 11.9153 31.9813 11.794C31.8879 11.6633 31.7386 11.598 31.5333 11.598C31.3466 11.598 31.1786 11.682 31.0293 11.85C30.8893 12.0087 30.7773 12.2747 30.6933 12.648C30.6093 13.012 30.5673 13.5067 30.5673 14.132L30.0213 14.356ZM30.1753 9.344L30.5673 12.27V19.06C30.5673 19.3867 30.6139 19.62 30.7073 19.76C30.8006 19.8907 31.0153 19.9887 31.3513 20.054L32.4153 20.264C32.6953 20.32 32.9006 20.418 33.0313 20.558C33.1619 20.698 33.2273 20.894 33.2273 21.146C33.2273 21.4167 33.1339 21.6267 32.9473 21.776C32.7699 21.9253 32.5039 22 32.1493 22H24.4073C24.0339 22 23.7633 21.9253 23.5953 21.776C23.4273 21.6267 23.3433 21.4213 23.3433 21.16C23.3433 20.9733 23.3899 20.81 23.4833 20.67C23.5766 20.53 23.7306 20.4133 23.9453 20.32L24.2533 20.18C24.3933 20.1147 24.4913 20.0073 24.5473 19.858C24.6033 19.6993 24.6313 19.4333 24.6313 19.06V12.536C24.6313 12.2373 24.5893 12.0273 24.5053 11.906C24.4306 11.7753 24.3139 11.6867 24.1553 11.64L23.8473 11.542C23.6513 11.4767 23.5066 11.3833 23.4133 11.262C23.3293 11.1407 23.2873 10.9867 23.2873 10.8C23.2873 10.576 23.3479 10.3987 23.4693 10.268C23.5999 10.128 23.8286 9.99733 24.1553 9.876L27.1653 8.7C27.8279 8.43867 28.3039 8.27067 28.5933 8.196C28.8826 8.12133 29.1066 8.084 29.2653 8.084C29.5266 8.084 29.7273 8.182 29.8673 8.378C30.0073 8.56467 30.1099 8.88667 30.1753 9.344ZM48.3236 19.522L48.1136 19.508V5.256C48.1136 4.95733 48.0716 4.74733 47.9876 4.626C47.913 4.49533 47.7963 4.40667 47.6376 4.36L47.3296 4.262C47.1336 4.19667 46.989 4.10333 46.8956 3.982C46.8116 3.86067 46.7696 3.70667 46.7696 3.52C46.7696 3.296 46.8303 3.11867 46.9516 2.988C47.073 2.85733 47.3016 2.72667 47.6376 2.596L50.7456 1.392C51.2216 1.20533 51.6043 1.07 51.8936 0.985999C52.1923 0.901999 52.4816 0.859998 52.7616 0.859998C53.1816 0.859998 53.499 0.981332 53.7136 1.224C53.9376 1.45733 54.0496 1.756 54.0496 2.12V19.06C54.0496 19.4333 54.0776 19.6993 54.1336 19.858C54.1896 20.0073 54.2876 20.1147 54.4276 20.18L54.7356 20.32C54.9503 20.4133 55.1043 20.53 55.1976 20.67C55.291 20.81 55.3376 20.9733 55.3376 21.16C55.3376 21.4213 55.2536 21.6267 55.0856 21.776C54.9176 21.9253 54.647 22 54.2736 22H50.7036C50.0783 22 49.523 21.7713 49.0376 21.314C48.5616 20.8567 48.3236 20.3153 48.3236 19.69V19.522ZM38.2016 15.7C38.2016 14.1787 38.5143 12.8487 39.1396 11.71C39.765 10.562 40.619 9.67067 41.7016 9.036C42.7843 8.40133 44.007 8.084 45.3696 8.084C46.5083 8.084 47.4976 8.32667 48.3376 8.812C49.1776 9.288 49.9056 10.016 50.5216 10.996L48.9956 12.032C48.5663 11.416 48.1603 10.982 47.7776 10.73C47.395 10.4687 46.9796 10.338 46.5316 10.338C46.093 10.338 45.7056 10.4967 45.3696 10.814C45.043 11.1313 44.7863 11.64 44.5996 12.34C44.4223 13.0307 44.3336 13.95 44.3336 15.098C44.3336 16.1433 44.427 16.988 44.6136 17.632C44.8096 18.2667 45.071 18.7333 45.3976 19.032C45.7336 19.3213 46.1116 19.466 46.5316 19.466C47.0543 19.466 47.5256 19.2933 47.9456 18.948C48.375 18.5933 48.781 18.024 49.1636 17.24L50.1576 18.192C49.3643 19.4893 48.4636 20.516 47.4556 21.272C46.457 22.0187 45.3136 22.392 44.0256 22.392C42.915 22.392 41.921 22.1073 41.0436 21.538C40.1663 20.9687 39.471 20.1847 38.9576 19.186C38.4536 18.178 38.2016 17.016 38.2016 15.7ZM70.994 13.488C70.994 14.1413 70.8167 14.65 70.462 15.014C70.1073 15.3687 69.5987 15.546 68.936 15.546H60.634V14.09H64.372C64.8853 14.09 65.142 13.8473 65.142 13.362C65.142 12.186 65.0067 11.346 64.736 10.842C64.4653 10.338 64.106 10.086 63.658 10.086C63.3313 10.086 63.0373 10.2073 62.776 10.45C62.5147 10.6927 62.3047 11.066 62.146 11.57C61.9967 12.0647 61.922 12.6947 61.922 13.46C61.922 15.1587 62.3047 16.4047 63.07 17.198C63.8353 17.982 64.8807 18.374 66.206 18.374C66.822 18.374 67.382 18.304 67.886 18.164C68.39 18.024 68.8847 17.7393 69.37 17.31C69.6407 17.0673 69.846 16.904 69.986 16.82C70.126 16.736 70.2613 16.694 70.392 16.694C70.5787 16.694 70.714 16.7873 70.798 16.974C70.8913 17.1607 70.938 17.3893 70.938 17.66C70.938 18.4907 70.6533 19.27 70.084 19.998C69.524 20.7167 68.74 21.2953 67.732 21.734C66.7333 22.1727 65.5667 22.392 64.232 22.392C62.804 22.392 61.5207 22.112 60.382 21.552C59.2433 20.9827 58.3427 20.194 57.68 19.186C57.0173 18.1687 56.686 16.9833 56.686 15.63C56.686 14.1087 56.9893 12.7833 57.596 11.654C58.2027 10.5247 59.0847 9.64733 60.242 9.022C61.4087 8.39667 62.8133 8.084 64.456 8.084C65.9027 8.084 67.1113 8.31733 68.082 8.784C69.0527 9.25067 69.7807 9.89 70.266 10.702C70.7513 11.514 70.994 12.4427 70.994 13.488ZM79.158 14.356C79.158 12.928 79.3446 11.752 79.718 10.828C80.0913 9.89467 80.586 9.204 81.202 8.756C81.8273 8.308 82.5086 8.084 83.246 8.084C84.2353 8.084 84.9913 8.38267 85.514 8.98C86.046 9.568 86.312 10.4593 86.312 11.654C86.312 12.8767 86.0646 13.7773 85.57 14.356C85.0846 14.9347 84.45 15.224 83.666 15.224C82.8726 15.224 82.2753 15.0233 81.874 14.622C81.482 14.2113 81.286 13.6467 81.286 12.928V12.34C81.2766 12.0973 81.2206 11.9153 81.118 11.794C81.0246 11.6633 80.8753 11.598 80.67 11.598C80.4833 11.598 80.3153 11.682 80.166 11.85C80.026 12.0087 79.914 12.2747 79.83 12.648C79.746 13.012 79.704 13.5067 79.704 14.132L79.158 14.356ZM79.312 9.344L79.704 12.27V19.06C79.704 19.3867 79.7506 19.62 79.844 19.76C79.9373 19.8907 80.152 19.9887 80.488 20.054L81.552 20.264C81.832 20.32 82.0373 20.418 82.168 20.558C82.2986 20.698 82.364 20.894 82.364 21.146C82.364 21.4167 82.2706 21.6267 82.084 21.776C81.9066 21.9253 81.6406 22 81.286 22H73.544C73.1706 22 72.9 21.9253 72.732 21.776C72.564 21.6267 72.48 21.4213 72.48 21.16C72.48 20.9733 72.5266 20.81 72.62 20.67C72.7133 20.53 72.8673 20.4133 73.082 20.32L73.39 20.18C73.53 20.1147 73.628 20.0073 73.684 19.858C73.74 19.6993 73.768 19.4333 73.768 19.06V12.536C73.768 12.2373 73.726 12.0273 73.642 11.906C73.5673 11.7753 73.4506 11.6867 73.292 11.64L72.984 11.542C72.788 11.4767 72.6433 11.3833 72.55 11.262C72.466 11.1407 72.424 10.9867 72.424 10.8C72.424 10.576 72.4846 10.3987 72.606 10.268C72.7366 10.128 72.9653 9.99733 73.292 9.876L76.302 8.7C76.9646 8.43867 77.4406 8.27067 77.73 8.196C78.0193 8.12133 78.2433 8.084 78.402 8.084C78.6633 8.084 78.864 8.182 79.004 8.378C79.144 8.56467 79.2466 8.88667 79.312 9.344ZM101.985 22.42C101.341 22.42 100.785 22.3547 100.319 22.224C99.8519 22.0933 99.4599 21.9627 99.1425 21.832C98.8252 21.7013 98.5592 21.636 98.3445 21.636C98.1205 21.636 97.9152 21.6827 97.7285 21.776C97.5512 21.86 97.3739 21.958 97.1965 22.07C97.0285 22.182 96.8559 22.28 96.6785 22.364C96.5012 22.4573 96.3099 22.504 96.1045 22.504C95.8152 22.504 95.5772 22.42 95.3905 22.252C95.2039 22.084 95.0779 21.804 95.0125 21.412L94.2145 16.638C94.1772 16.3673 94.2192 16.134 94.3405 15.938C94.4712 15.742 94.6812 15.5927 94.9705 15.49C95.2879 15.378 95.5632 15.3827 95.7965 15.504C96.0392 15.616 96.2492 15.8447 96.4265 16.19C97.0145 17.2913 97.5839 18.1453 98.1345 18.752C98.6852 19.3587 99.2359 19.7833 99.7865 20.026C100.347 20.2593 100.921 20.376 101.509 20.376C102.283 20.376 102.904 20.1987 103.371 19.844C103.837 19.48 104.071 18.9667 104.071 18.304C104.071 17.856 103.959 17.464 103.735 17.128C103.511 16.792 103.067 16.4653 102.405 16.148C101.742 15.8307 100.748 15.4807 99.4225 15.098C97.9665 14.6687 96.7999 14.1553 95.9225 13.558C95.0452 12.9607 94.4105 12.228 94.0185 11.36C93.6265 10.492 93.4305 9.456 93.4305 8.252C93.4305 7.048 93.7245 5.97933 94.3125 5.046C94.9005 4.10333 95.7359 3.366 96.8185 2.834C97.9105 2.302 99.1939 2.036 100.669 2.036C101.434 2.036 102.083 2.10133 102.615 2.232C103.156 2.36267 103.618 2.498 104.001 2.638C104.383 2.76867 104.715 2.834 104.995 2.834C105.228 2.834 105.433 2.764 105.611 2.624C105.797 2.47467 105.993 2.32533 106.199 2.176C106.413 2.02667 106.679 1.952 106.997 1.952C107.295 1.952 107.547 2.05 107.753 2.246C107.958 2.43267 108.135 2.792 108.285 3.324L109.531 7.916C109.624 8.26133 109.61 8.56933 109.489 8.84C109.367 9.10133 109.153 9.28333 108.845 9.386C108.527 9.48867 108.247 9.47933 108.005 9.358C107.771 9.23667 107.575 9.02667 107.417 8.728C106.819 7.552 106.18 6.628 105.499 5.956C104.827 5.27467 104.145 4.794 103.455 4.514C102.773 4.22467 102.111 4.08 101.467 4.08C100.729 4.08 100.155 4.28533 99.7445 4.696C99.3432 5.09733 99.1425 5.62 99.1425 6.264C99.1425 6.67467 99.2452 7.05267 99.4505 7.398C99.6559 7.734 100.081 8.07933 100.725 8.434C101.378 8.78867 102.358 9.19467 103.665 9.652C105.093 10.1467 106.236 10.6973 107.095 11.304C107.953 11.9013 108.574 12.6013 108.957 13.404C109.349 14.1973 109.545 15.1353 109.545 16.218C109.545 17.366 109.241 18.4113 108.635 19.354C108.028 20.2873 107.16 21.034 106.031 21.594C104.911 22.1447 103.562 22.42 101.985 22.42ZM121.625 19.13V18.948H121.415V12.48C121.415 12.1813 121.373 11.9713 121.289 11.85C121.214 11.7193 121.097 11.6307 120.939 11.584L120.631 11.486C120.435 11.4207 120.29 11.3273 120.197 11.206C120.113 11.0847 120.071 10.9307 120.071 10.744C120.071 10.52 120.131 10.3427 120.253 10.212C120.374 10.0813 120.603 9.95067 120.939 9.82L124.047 8.616C124.523 8.42933 124.905 8.294 125.195 8.21C125.493 8.126 125.783 8.084 126.063 8.084C126.483 8.084 126.8 8.20533 127.015 8.448C127.239 8.68133 127.351 8.98 127.351 9.344V19.06C127.351 19.4333 127.379 19.6993 127.435 19.858C127.491 20.0073 127.589 20.1147 127.729 20.18L128.037 20.32C128.251 20.4133 128.405 20.53 128.499 20.67C128.592 20.81 128.639 20.9733 128.639 21.16C128.639 21.4213 128.555 21.6267 128.387 21.776C128.219 21.9253 127.948 22 127.575 22H124.145C123.482 22 122.894 21.7153 122.381 21.146C121.877 20.5767 121.625 19.9047 121.625 19.13ZM112.371 17.912V12.48C112.371 12.1813 112.329 11.9713 112.245 11.85C112.17 11.7193 112.053 11.6307 111.895 11.584L111.587 11.486C111.391 11.4207 111.246 11.3273 111.153 11.206C111.069 11.0847 111.027 10.9307 111.027 10.744C111.027 10.52 111.087 10.3427 111.209 10.212C111.33 10.0813 111.559 9.95067 111.895 9.82L115.003 8.616C115.507 8.42 115.903 8.28467 116.193 8.21C116.482 8.126 116.739 8.084 116.963 8.084C117.411 8.084 117.747 8.20533 117.971 8.448C118.195 8.68133 118.307 8.98 118.307 9.344V17.072C118.307 17.6693 118.442 18.1173 118.713 18.416C118.993 18.7147 119.38 18.864 119.875 18.864C120.183 18.864 120.505 18.8033 120.841 18.682C121.177 18.5607 121.475 18.3833 121.737 18.15L122.227 17.716L123.067 18.612L122.647 19.004C121.331 20.264 120.187 21.146 119.217 21.65C118.246 22.1447 117.355 22.392 116.543 22.392C115.301 22.392 114.293 21.9767 113.519 21.146C112.753 20.3153 112.371 19.2373 112.371 17.912ZM137.481 9.344V19.06C137.481 19.4333 137.509 19.6947 137.565 19.844C137.621 19.9933 137.719 20.1053 137.859 20.18L138.139 20.334C138.447 20.5113 138.601 20.768 138.601 21.104C138.601 21.7013 138.242 22 137.523 22H131.321C130.948 22 130.677 21.9253 130.509 21.776C130.341 21.6267 130.257 21.4213 130.257 21.16C130.257 20.9733 130.304 20.81 130.397 20.67C130.491 20.53 130.645 20.4133 130.859 20.32L131.167 20.18C131.307 20.1147 131.405 20.0073 131.461 19.858C131.517 19.6993 131.545 19.4333 131.545 19.06V12.48C131.545 12.1813 131.503 11.9713 131.419 11.85C131.345 11.7193 131.228 11.6307 131.069 11.584L130.761 11.486C130.565 11.4207 130.421 11.3273 130.327 11.206C130.243 11.0847 130.201 10.9307 130.201 10.744C130.201 10.52 130.262 10.3427 130.383 10.212C130.505 10.0813 130.733 9.95067 131.069 9.82L134.177 8.616C134.653 8.42933 135.036 8.294 135.325 8.21C135.624 8.126 135.913 8.084 136.193 8.084C136.613 8.084 136.931 8.20533 137.145 8.448C137.369 8.68133 137.481 8.98 137.481 9.344ZM136.977 12.76L136.137 11.864L136.557 11.472C137.873 10.212 139.003 9.33467 139.945 8.84C140.897 8.336 141.779 8.084 142.591 8.084C143.842 8.084 144.836 8.49933 145.573 9.33C146.32 10.1513 146.693 11.2293 146.693 12.564V19.06C146.693 19.4333 146.721 19.6947 146.777 19.844C146.833 19.9933 146.931 20.1053 147.071 20.18L147.351 20.334C147.659 20.5113 147.813 20.768 147.813 21.104C147.813 21.7013 147.454 22 146.735 22H140.715C139.997 22 139.637 21.7013 139.637 21.104C139.637 20.768 139.791 20.5113 140.099 20.334L140.379 20.18C140.519 20.1053 140.617 19.9933 140.673 19.844C140.729 19.6947 140.757 19.4333 140.757 19.06V13.404C140.757 12.8067 140.631 12.3587 140.379 12.06C140.127 11.7613 139.754 11.612 139.259 11.612C138.951 11.612 138.639 11.6727 138.321 11.794C138.013 11.9153 137.729 12.0927 137.467 12.326L136.977 12.76ZM146.189 12.76L145.349 11.864L145.769 11.472C147.085 10.212 148.215 9.33467 149.157 8.84C150.109 8.336 150.991 8.084 151.803 8.084C153.054 8.084 154.048 8.49933 154.785 9.33C155.532 10.1513 155.905 11.2293 155.905 12.564V19.06C155.905 19.4333 155.933 19.6993 155.989 19.858C156.045 20.0073 156.143 20.1147 156.283 20.18L156.591 20.32C156.806 20.4133 156.96 20.53 157.053 20.67C157.147 20.81 157.193 20.9733 157.193 21.16C157.193 21.4213 157.109 21.6267 156.941 21.776C156.773 21.9253 156.503 22 156.129 22H149.927C149.209 22 148.849 21.7013 148.849 21.104C148.849 20.768 149.003 20.5113 149.311 20.334L149.591 20.18C149.731 20.1053 149.829 19.9933 149.885 19.844C149.941 19.6947 149.969 19.4333 149.969 19.06V13.404C149.969 12.8067 149.843 12.3587 149.591 12.06C149.339 11.7613 148.966 11.612 148.471 11.612C148.163 11.612 147.851 11.6727 147.533 11.794C147.225 11.9153 146.941 12.0927 146.679 12.326L146.189 12.76ZM165.755 9.344V19.06C165.755 19.4333 165.783 19.6947 165.839 19.844C165.895 19.9933 165.993 20.1053 166.133 20.18L166.413 20.334C166.721 20.5113 166.875 20.768 166.875 21.104C166.875 21.7013 166.515 22 165.797 22H159.595C159.221 22 158.951 21.9253 158.783 21.776C158.615 21.6267 158.531 21.4213 158.531 21.16C158.531 20.9733 158.577 20.81 158.671 20.67C158.764 20.53 158.918 20.4133 159.133 20.32L159.441 20.18C159.581 20.1147 159.679 20.0073 159.735 19.858C159.791 19.6993 159.819 19.4333 159.819 19.06V12.48C159.819 12.1813 159.777 11.9713 159.693 11.85C159.618 11.7193 159.501 11.6307 159.343 11.584L159.035 11.486C158.839 11.4207 158.694 11.3273 158.601 11.206C158.517 11.0847 158.475 10.9307 158.475 10.744C158.475 10.52 158.535 10.3427 158.657 10.212C158.778 10.0813 159.007 9.95067 159.343 9.82L162.451 8.616C162.927 8.42933 163.309 8.294 163.599 8.21C163.897 8.126 164.187 8.084 164.467 8.084C164.887 8.084 165.204 8.20533 165.419 8.448C165.643 8.68133 165.755 8.98 165.755 9.344ZM165.251 12.76L164.411 11.864L164.831 11.472C166.147 10.212 167.276 9.33467 168.219 8.84C169.171 8.336 170.053 8.084 170.865 8.084C172.115 8.084 173.109 8.49933 173.847 9.33C174.593 10.1513 174.967 11.2293 174.967 12.564V19.06C174.967 19.4333 174.995 19.6947 175.051 19.844C175.107 19.9933 175.205 20.1053 175.345 20.18L175.625 20.334C175.933 20.5113 176.087 20.768 176.087 21.104C176.087 21.7013 175.727 22 175.009 22H168.989C168.27 22 167.911 21.7013 167.911 21.104C167.911 20.768 168.065 20.5113 168.373 20.334L168.653 20.18C168.793 20.1053 168.891 19.9933 168.947 19.844C169.003 19.6947 169.031 19.4333 169.031 19.06V13.404C169.031 12.8067 168.905 12.3587 168.653 12.06C168.401 11.7613 168.027 11.612 167.533 11.612C167.225 11.612 166.912 11.6727 166.595 11.794C166.287 11.9153 166.002 12.0927 165.741 12.326L165.251 12.76ZM174.463 12.76L173.623 11.864L174.043 11.472C175.359 10.212 176.488 9.33467 177.431 8.84C178.383 8.336 179.265 8.084 180.077 8.084C181.327 8.084 182.321 8.49933 183.059 9.33C183.805 10.1513 184.179 11.2293 184.179 12.564V19.06C184.179 19.4333 184.207 19.6993 184.263 19.858C184.319 20.0073 184.417 20.1147 184.557 20.18L184.865 20.32C185.079 20.4133 185.233 20.53 185.327 20.67C185.42 20.81 185.467 20.9733 185.467 21.16C185.467 21.4213 185.383 21.6267 185.215 21.776C185.047 21.9253 184.776 22 184.403 22H178.201C177.482 22 177.123 21.7013 177.123 21.104C177.123 20.768 177.277 20.5113 177.585 20.334L177.865 20.18C178.005 20.1053 178.103 19.9933 178.159 19.844C178.215 19.6947 178.243 19.4333 178.243 19.06V13.404C178.243 12.8067 178.117 12.3587 177.865 12.06C177.613 11.7613 177.239 11.612 176.745 11.612C176.437 11.612 176.124 11.6727 175.807 11.794C175.499 11.9153 175.214 12.0927 174.953 12.326L174.463 12.76ZM195.316 20.082V19.76L194.868 19.746V10.702C194.868 10.3473 194.77 10.0627 194.574 9.848C194.388 9.63333 194.131 9.526 193.804 9.526C193.562 9.526 193.347 9.58667 193.16 9.708C192.983 9.82 192.894 9.974 192.894 10.17V11.696C192.894 12.48 192.624 13.0867 192.082 13.516C191.55 13.9453 190.785 14.16 189.786 14.16C188.937 14.16 188.302 13.9827 187.882 13.628C187.472 13.264 187.266 12.76 187.266 12.116C187.266 11.5 187.546 10.884 188.106 10.268C188.666 9.652 189.506 9.13867 190.626 8.728C191.756 8.31733 193.174 8.112 194.882 8.112C196.861 8.112 198.331 8.476 199.292 9.204C200.254 9.92267 200.734 10.9073 200.734 12.158V18.85C200.734 19.0273 200.776 19.1767 200.86 19.298C200.954 19.41 201.094 19.466 201.28 19.466C201.439 19.466 201.565 19.424 201.658 19.34C201.761 19.256 201.854 19.172 201.938 19.088C202.004 19.0227 202.069 18.9667 202.134 18.92C202.209 18.8733 202.293 18.85 202.386 18.85C202.545 18.85 202.657 18.9107 202.722 19.032C202.797 19.144 202.834 19.2887 202.834 19.466C202.834 19.8767 202.685 20.3107 202.386 20.768C202.088 21.216 201.64 21.5987 201.042 21.916C200.454 22.2333 199.722 22.392 198.844 22.392C197.808 22.392 196.959 22.1727 196.296 21.734C195.643 21.2953 195.316 20.7447 195.316 20.082ZM186.762 19.018C186.762 17.7393 187.341 16.7313 188.498 15.994C189.656 15.2473 191.28 14.874 193.37 14.874C193.921 14.874 194.402 14.9113 194.812 14.986C195.223 15.0607 195.559 15.168 195.82 15.308L195.344 16.526C195.148 16.414 194.962 16.3347 194.784 16.288C194.616 16.2413 194.43 16.218 194.224 16.218C193.767 16.218 193.403 16.372 193.132 16.68C192.871 16.9787 192.74 17.4127 192.74 17.982C192.74 18.5793 192.871 19.0367 193.132 19.354C193.394 19.662 193.739 19.816 194.168 19.816C194.439 19.816 194.691 19.7553 194.924 19.634C195.167 19.5033 195.349 19.354 195.47 19.186L195.806 20.306C195.358 20.9687 194.705 21.482 193.846 21.846C192.997 22.21 192.087 22.392 191.116 22.392C189.81 22.392 188.755 22.07 187.952 21.426C187.159 20.782 186.762 19.9793 186.762 19.018ZM210.326 14.356C210.326 12.928 210.513 11.752 210.886 10.828C211.259 9.89467 211.754 9.204 212.37 8.756C212.995 8.308 213.677 8.084 214.414 8.084C215.403 8.084 216.159 8.38267 216.682 8.98C217.214 9.568 217.48 10.4593 217.48 11.654C217.48 12.8767 217.233 13.7773 216.738 14.356C216.253 14.9347 215.618 15.224 214.834 15.224C214.041 15.224 213.443 15.0233 213.042 14.622C212.65 14.2113 212.454 13.6467 212.454 12.928V12.34C212.445 12.0973 212.389 11.9153 212.286 11.794C212.193 11.6633 212.043 11.598 211.838 11.598C211.651 11.598 211.483 11.682 211.334 11.85C211.194 12.0087 211.082 12.2747 210.998 12.648C210.914 13.012 210.872 13.5067 210.872 14.132L210.326 14.356ZM210.48 9.344L210.872 12.27V19.06C210.872 19.3867 210.919 19.62 211.012 19.76C211.105 19.8907 211.32 19.9887 211.656 20.054L212.72 20.264C213 20.32 213.205 20.418 213.336 20.558C213.467 20.698 213.532 20.894 213.532 21.146C213.532 21.4167 213.439 21.6267 213.252 21.776C213.075 21.9253 212.809 22 212.454 22H204.712C204.339 22 204.068 21.9253 203.9 21.776C203.732 21.6267 203.648 21.4213 203.648 21.16C203.648 20.9733 203.695 20.81 203.788 20.67C203.881 20.53 204.035 20.4133 204.25 20.32L204.558 20.18C204.698 20.1147 204.796 20.0073 204.852 19.858C204.908 19.6993 204.936 19.4333 204.936 19.06V12.536C204.936 12.2373 204.894 12.0273 204.81 11.906C204.735 11.7753 204.619 11.6867 204.46 11.64L204.152 11.542C203.956 11.4767 203.811 11.3833 203.718 11.262C203.634 11.1407 203.592 10.9867 203.592 10.8C203.592 10.576 203.653 10.3987 203.774 10.268C203.905 10.128 204.133 9.99733 204.46 9.876L207.47 8.7C208.133 8.43867 208.609 8.27067 208.898 8.196C209.187 8.12133 209.411 8.084 209.57 8.084C209.831 8.084 210.032 8.182 210.172 8.378C210.312 8.56467 210.415 8.88667 210.48 9.344ZM229.104 19.256L225.856 24.506L219.43 11.262C219.272 10.926 219.113 10.6927 218.954 10.562C218.796 10.422 218.59 10.2913 218.338 10.17C218.152 10.0767 218.016 9.96933 217.932 9.848C217.848 9.71733 217.806 9.54933 217.806 9.344C217.806 9.08267 217.895 8.87733 218.072 8.728C218.259 8.57867 218.511 8.504 218.828 8.504H226.36C226.668 8.504 226.911 8.57867 227.088 8.728C227.275 8.87733 227.368 9.08267 227.368 9.344C227.368 9.54933 227.312 9.71733 227.2 9.848C227.098 9.96933 226.925 10.0673 226.682 10.142L226.304 10.254C225.931 10.366 225.712 10.548 225.646 10.8C225.581 11.052 225.679 11.4813 225.94 12.088L229.104 19.256ZM225.94 23.204L226.332 22.308L227.088 20.894L230.504 12.368C230.747 11.7707 230.836 11.318 230.77 11.01C230.705 10.6927 230.481 10.4733 230.098 10.352L229.636 10.198C229.403 10.1233 229.226 10.016 229.104 9.876C228.992 9.72667 228.936 9.54933 228.936 9.344C228.936 9.08267 229.025 8.87733 229.202 8.728C229.389 8.57867 229.636 8.504 229.944 8.504H233.878C234.196 8.504 234.443 8.57867 234.62 8.728C234.807 8.87733 234.9 9.08267 234.9 9.344C234.9 9.512 234.849 9.666 234.746 9.806C234.653 9.93667 234.494 10.0627 234.27 10.184C233.925 10.3613 233.631 10.5853 233.388 10.856C233.146 11.1267 232.903 11.5653 232.66 12.172L228.39 22.518C227.728 24.1233 227.126 25.36 226.584 26.228C226.052 27.096 225.474 27.6933 224.848 28.02C224.223 28.356 223.444 28.524 222.51 28.524C221.157 28.524 220.079 28.16 219.276 27.432C218.474 26.7133 218.072 25.8033 218.072 24.702C218.072 23.918 218.273 23.2973 218.674 22.84C219.076 22.392 219.612 22.168 220.284 22.168C220.947 22.168 221.451 22.3547 221.796 22.728C222.142 23.1013 222.45 23.6007 222.72 24.226L223.014 24.898C223.145 25.206 223.294 25.4487 223.462 25.626C223.64 25.8033 223.822 25.892 224.008 25.892C224.186 25.892 224.349 25.836 224.498 25.724C224.657 25.6213 224.848 25.3787 225.072 24.996C225.296 24.6133 225.586 24.016 225.94 23.204Z" fill="white"/>
</svg>
